Coordinates
version=1
nRows=16
nColumns=40
inDegrees=yes

Units are S.I. units (second, meters, Newtons, ...)
Angles are in degrees.

endheader
time	pelvis_tilt	pelvis_list	pelvis_rotation	pelvis_tx	pelvis_ty	pelvis_tz	hip_flexion_r	hip_adduction_r	hip_rotation_r	knee_angle_r	knee_angle_r_beta	ankle_angle_r	subtalar_angle_r	mtp_angle_r	hip_flexion_l	hip_adduction_l	hip_rotation_l	knee_angle_l	knee_angle_l_beta	ankle_angle_l	subtalar_angle_l	mtp_angle_l	lumbar_extension	lumbar_bending	lumbar_rotation	arm_flex_r	arm_add_r	arm_rot_r	elbow_flex_r	pro_sup_r	wrist_flex_r	wrist_dev_r	arm_flex_l	arm_add_l	arm_rot_l	elbow_flex_l	pro_sup_l	wrist_flex_l	wrist_dev_l
     47.24414286	     -3.58010645	     -4.44996870	     -2.24115202	      1.09435277	      0.93582117	      0.41508437	     38.10505882	     -5.56615953	     -5.97827632	     51.77859189	     51.77859189	     -2.34477113	    -13.41486701	      2.46251171	      7.38198770	     -3.93167298	     -9.97620066	     17.16929043	     17.16929043	     14.25093205	    -11.61558781	     -0.30041513	    -11.54512643	      7.46055150	      2.70628751	      4.12637133	    -11.94368412	    -10.16178414	     25.53271268	     47.02086937	      0.00000000	      0.00000000	     22.45089264	    -16.75207124	     -2.79764235	     61.01422998	     47.09494724	      0.00000000	      0.00000000
     47.25578571	     -3.66493492	     -4.42897387	     -2.31810581	      1.09411448	      0.93542882	      0.41536299	     38.11288311	     -5.37607249	     -6.43383384	     47.64837021	     47.64837021	     -3.15229211	    -12.13411389	     -0.21094810	      6.47428756	     -3.90715492	    -10.42279730	     16.51515826	     16.51515826	     14.35980564	    -10.96139926	     -1.18150067	    -11.56294126	      7.48730777	      2.18061809	      3.28717705	    -11.90508299	    -11.14572970	     21.85722631	     47.26079655	      0.00000000	      0.00000000	     23.51608877	    -17.87296424	     -2.58661382	     63.43378308	     47.14391788	      0.00000000	      0.00000000
     47.26742857	     -3.71120381	     -4.31992402	     -2.37041589	      1.09408878	      0.93493847	      0.41554478	     37.96944108	     -5.31547696	     -6.99461958	     43.48256281	     43.48256281	     -2.98463735	    -10.05555015	     -0.24841213	      5.49477630	     -3.74009790	    -10.74714412	     15.83521574	     15.83521574	     14.69484137	    -10.37269601	     -1.37089510	    -11.60288689	      7.43823273	      2.19050418	      1.12477549	    -12.16254023	    -11.34734161	     20.84785304	     47.30595802	      0.00000000	      0.00000000	     25.20418678	    -18.17967313	     -2.90923564	     64.95721530	     47.20622893	      0.00000000	      0.00000000
     47.27907143	     -3.81800755	     -4.15920160	     -2.35920234	      1.09412677	      0.93420055	      0.41572280	     37.66912254	     -5.30391647	     -7.66177438	     39.06455650	     39.06455650	     -3.00480671	     -7.90440818	     -0.53524385	      4.58540709	     -3.54361161	    -11.16461554	     15.14594100	     15.14594100	     14.97803136	     -9.49691511	     -1.75679174	    -11.63026404	      7.35544977	      2.17991967	     -1.11732568	    -12.33231137	    -11.70850975	     20.02999783	     47.36114923	      0.00000000	      0.00000000	     26.69098511	    -18.57825492	     -2.97932382	     66.87043008	     47.25831834	      0.00000000	      0.00000000
     47.29071429	     -3.84040488	     -4.04595249	     -2.31285617	      1.09449602	      0.93336904	      0.41600933	     37.03234795	     -5.19895780	     -8.47494715	     34.48925344	     34.48925344	     -2.88288282	     -5.78818910	     -0.36780044	      3.60459749	     -3.39712142	    -11.50508319	     14.54153803	     14.54153803	     15.31540192	     -8.77962046	     -2.11232608	    -11.63904404	      7.27971625	      2.04827889	     -3.30772812	    -12.50549914	    -12.00426043	     19.46231577	     47.39757912	      0.00000000	      0.00000000	     28.10633158	    -19.06335364	     -3.06786713	     68.56516572	     47.30622100	      0.00000000	      0.00000000
     47.30235714	     -3.85871598	     -3.89516411	     -2.21564666	      1.09513022	      0.93230583	      0.41633366	     36.23555547	     -5.10150467	     -9.38900258	     29.96009402	     29.96009402	     -2.66178356	     -3.71788207	      0.15233020	      2.60606918	     -3.21516529	    -11.81937321	     13.93096883	     13.93096883	     15.64030635	     -7.96778607	     -2.51022006	    -11.63859246	      7.23867931	      1.91298432	     -5.57442732	    -12.64955854	    -12.33107477	     19.15220315	     47.42317592	      0.00000000	      0.00000000	     29.35977812	    -19.47907088	     -3.06806608	     70.32812125	     47.34844311	      0.00000000	      0.00000000
     47.31400000	     -3.79686908	     -3.65738274	     -2.12256491	      1.09606627	      0.93103300	      0.41678709	     35.31326019	     -5.07231887	    -10.41028708	     25.75218262	     25.75218262	     -2.25383088	     -1.58676006	      1.21649232	      1.48992391	     -2.95907353	    -12.25515879	     13.31193498	     13.31193498	     15.98963139	     -6.96421170	     -3.05406867	    -11.67076635	      7.02504062	      1.87174227	     -8.05398335	    -12.69819861	    -12.83368787	     19.38418747	     47.43684580	      0.00000000	      0.00000000	     30.53031256	    -19.90522012	     -2.89763885	     72.46781836	     47.38941777	      0.00000000	      0.00000000
     47.32564286	     -3.81467365	     -3.43872162	     -1.98597025	      1.09724093	      0.92940994	      0.41736086	     34.41943333	     -4.91549855	    -11.21571777	     21.89089695	     21.89089695	     -1.92696349	     -0.25262311	      2.46783443	      0.54458945	     -2.72134539	    -12.39945343	     12.86802530	     12.86802530	     16.39730179	     -6.40459861	     -3.40527742	    -11.44858959	      6.87232336	      1.57755162	    -10.20630247	    -12.74189035	    -13.10976698	     19.25249373	     47.44557513	      0.00000000	      0.00000000	     31.60221486	    -20.33248532	     -2.92574760	     73.82351100	     47.42611140	      0.00000000	      0.00000000
     47.33728571	     -3.66799196	     -3.21869488	     -1.88788685	      1.09867418	      0.92775979	      0.41816031	     33.65752083	     -4.90185476	    -12.38907572	     19.27624214	     19.27624214	      0.01576280	      1.74755229	      7.26021440	     -0.60682495	     -2.56438825	    -13.03847440	     12.44470098	     12.44470098	     16.77985327	     -5.09798027	     -4.27858061	    -11.61656063	      6.66807232	      1.74581109	    -13.54420213	    -12.62164373	    -14.51406877	     22.12439655	     47.39201482	      0.00000000	      0.00000000	     32.41979115	    -20.90470628	     -2.08275836	     76.67222178	     47.46382737	      0.00000000	      0.00000000
     47.34892857	     -3.54719081	     -3.00998579	     -1.76365680	      1.10035197	      0.92596498	      0.41910225	     32.79671249	     -4.75328348	    -13.13643370	     16.88952919	     16.88952919	      0.60896942	      2.49826563	      8.49692625	     -1.75006898	     -2.34920600	    -13.07428835	     11.99559738	     11.99559738	     17.21081246	     -4.62949867	     -4.44500387	    -11.52064301	      6.49245199	      1.78184003	    -15.64061050	    -12.54738032	    -14.73601463	     21.85038340	     47.39556991	      0.00000000	      0.00000000	     33.45758266	    -20.99817366	     -2.15287953	     77.88964410	     47.50517136	      0.00000000	      0.00000000
     47.36057143	     -3.48355189	     -2.81616538	     -1.65802461	      1.10204360	      0.92398251	      0.42023120	     32.27154733	     -4.68389560	    -13.80978664	     15.66743700	     15.66743700	      2.19832398	      3.10917526	     12.04300099	     -2.71100407	     -2.23227382	    -13.35658679	     11.80072226	     11.80072226	     17.82119897	     -3.81818596	     -4.55588382	    -11.42486024	      6.33264931	      1.97703769	    -18.36197384	    -12.29721825	    -15.75620824	     23.69204816	     47.32336332	      0.00000000	      0.00000000	     34.29852056	    -21.18780758	     -1.66842523	     79.60177640	     47.57289915	      0.00000000	      0.00000000
     47.37221429	     -3.39163505	     -2.66262912	     -1.55166680	      1.10393550	      0.92196874	      0.42153743	     31.64950023	     -4.55550993	    -14.23370961	     14.82567261	     14.82567261	      2.60273276	      3.14027003	     12.17901641	     -3.71145980	     -2.14063755	    -13.35670433	     11.60287859	     11.60287859	     18.33674699	     -3.47907730	     -4.68191231	    -11.25621184	      6.17757970	      2.00211134	    -20.08279684	    -12.13031436	    -15.87191245	     23.31327893	     47.32530935	      0.00000000	      0.00000000	     35.00976052	    -21.19945841	     -1.67362385	     80.88796146	     47.60957793	      0.00000000	      0.00000000
     47.38385714	     -3.33524662	     -2.53110743	     -1.43518752	      1.10594826	      0.91985438	      0.42307936	     31.18103582	     -4.45375243	    -14.43885456	     14.74751028	     14.74751028	      3.01784556	      2.78672491	     11.88224078	     -4.60787992	     -2.12583300	    -13.41512829	     11.55841210	     11.55841210	     18.88203200	     -3.06335494	     -4.72303212	    -11.08128513	      6.06042738	      2.13559056	    -21.71164673	    -11.89371194	    -16.03595159	     23.23892977	     47.31719815	      0.00000000	      0.00000000	     35.50394550	    -21.25712232	     -1.59077746	     82.46625170	     47.64602920	      0.00000000	      0.00000000
     47.39550000	     -3.38279011	     -2.45134718	     -1.30521549	      1.10804519	      0.91762451	      0.42480884	     30.81737468	     -4.31002096	    -14.31890026	     15.07864992	     15.07864992	      3.02737423	      2.04718630	     10.67692002	     -5.27655895	     -2.24618756	    -13.57128788	     11.76683126	     11.76683126	     19.61269771	     -2.43618020	     -4.49559832	    -10.76815865	      5.98503553	      2.13152328	    -23.25344834	    -11.61179474	    -16.32696785	     23.68492008	     47.28979128	      0.00000000	      0.00000000	     35.59902338	    -21.52619880	     -1.44644331	     84.37931490	     47.69217674	      0.00000000	      0.00000000
     47.40714286	     -3.32884311	     -2.43836722	     -1.13789014	      1.11027729	      0.91552116	      0.42673211	     30.27560229	     -4.10505540	    -14.04654619	     15.59008788	     15.59008788	      2.09633152	      0.92069387	      7.05163699	     -5.91081208	     -2.52840005	    -13.84686498	     12.32593868	     12.32593868	     20.78100427	     -1.52007359	     -3.55992539	    -10.57459810	      5.97807352	      1.86242393	    -24.44986470	    -11.45500370	    -16.66871350	     24.30966382	     47.23969841	      0.00000000	      0.00000000	     35.33911816	    -21.93664875	     -1.63471891	     86.29850984	     47.78916866	      0.00000000	      0.00000000
     47.41878571	     -3.32935599	     -2.49294839	     -0.94921326	      1.11257205	      0.91359981	      0.42870473	     29.94898444	     -3.96234993	    -13.92712965	     16.73570332	     16.73570332	      2.19653052	      0.30849939	      6.43973912	     -6.57319193	     -2.81334647	    -13.62668871	     12.62399344	     12.62399344	     21.22237796	     -1.53063609	     -3.61589501	    -10.28850668	      6.08466096	      1.93499943	    -25.27621526	    -11.23698973	    -16.65200516	     23.89822148	     47.24442589	      0.00000000	      0.00000000	     35.41936848	    -21.82055541	     -1.71695452	     86.87883070	     47.81064318	      0.00000000	      0.00000000
